# xmcd CD database file
#
# Track frame offsets:
#	150
#	21803
#	40738
#
# Disc length: 828 seconds
#
# Revision: 0
# Processed by: cddbd v1.5.1PL0 Copyright (c) Steve Scherf et al.
# Submitted via: CDex 1.50
#
DISCID=19033a03
DTITLE=cloudica - Under the Sky
DYEAR=2004
DGENRE=Pop
TTITLE0=Under the Sky
TTITLE1=ぼくらのきせつ
TTITLE2=Under the Sky (Origina Instrumental Mix)
EXTD=YEAR: 2004
EXTT0=
EXTT1=
EXTT2=
PLAYORDER=
